PathFileType	4	(X/Y/Z)	C:/Users/beibeiliu/ov580/test_trc/capture2\sequence.36_training_dense_left.trc
DataRate	CameraRate	NumFrames	NumMarkers	Units	OrigDataRate	OrigDataStartFrame	OrigNumFrames
120	120	23	19	mm	120	94	374
Frame#	Time	ThumbCMC			ThumbMCP			ThumbIP			ThumbTip			IndexMCP			IndexPIP			IndexTip			MiddleMCP			MiddlePIP			MiddleTip			RingMCP			RingPIP			RingTip			PinkyMCP			PinkyPIP			PinkyTip			BackHand1			BackHand2			BackHand3	
		X0	Y0	Z0	X1	Y1	Z1	X2	Y2	Z2	X3	Y3	Z3	X4	Y4	Z4	X5	Y5	Z5	X6	Y6	Z6	X7	Y7	Z7	X8	Y8	Z8	X9	Y9	Z9	X10	Y10	Z10	X11	Y11	Z11	X12	Y12	Z12	X13	Y13	Z13	X14	Y14	Z14	X15	Y15	Z15	X16	Y16	Z16	X17	Y17	Z17	X18	Y18	Z18	
93	0.775	-142.3	56.4818	6.34987	-129.862	66.4187	-20.3121	-124.279	70.429	-43.3647	-118.083	66.1511	-68.3185	-137.505	41.613	-67.2101	-106.892	44.6723	-78.6996	-93.9458	52.4186	-45.9527	-124.322	23.939	-72.3541	-94.8736	29.9982	-70.6729	-93.6766	34.3676	-33.1392	-113.956	3.89793	-64.9126	-88.7229	14.4405	-58.0226	-94.1507	28.5164	-25.9203	-114.595	-7.94194	-52.1789	-87.993	5.60927	-48.1121	-95.5682	18.9189	-18.2791	-155.391	-0.340172	-19.773	-159.181	1.83371	10.0735	-164.828	28.3276	-6.23809	
94	0.783333	-143.506	53.5814	7.30488	-130.875	69.852	-18.5978	-126.214	71.9323	-47.8645	-119.749	62.8056	-66.7997	-135.37	41.6112	-69.8372	-106.746	41.8895	-77.1679	-94.8664	50.8655	-48.3487	-125.454	24.9434	-72.3434	-94.4111	32.8018	-69.0654	-94.7239	34.9255	-30.7875	-116.12	4.86918	-64.2249	-90.0849	16.4259	-59.407	-93.4072	25.8659	-23.5492	-113.963	-7.88262	-51.6352	-86.6484	0.299843	-47.6139	-92.0693	18.7858	-17.4262	-153.297	0.00970594	-17.7348	-160.347	-1.20924	10.6216	-163.697	25.8127	-6.23755	
95	0.791667	-143.859	53.7412	6.56919	-131.417	68.6174	-16.4819	-128.4	68.0804	-46.4226	-120.561	65.1844	-68.0308	-135.202	39.2438	-70.8203	-105.395	41.9291	-75.6517	-96.8096	49.5169	-43.1297	-125.299	20.243	-71.531	-96.8023	29.8262	-72.0905	-94.484	33.8794	-32.3061	-115.853	2.63304	-63.7225	-90.1905	13.0535	-59.6633	-91.3666	24.4454	-27.5581	-114.383	-13.2332	-49.7564	-86.0203	4.43871	-45.163	-93.4643	20.1128	-19.7985	-154.224	-4.31512	-20.543	-158.35	-0.29064	11.6948	-166.267	30.0477	-7.33995	
96	0.8	-144.12	55.2795	4.4967	-133.045	65.6417	-19.9339	-128.553	71.9582	-50.1452	-121.816	61.1582	-69.9659	-136.692	39.5932	-68.5614	-106.608	46.4148	-77.6685	-96.2952	51.2508	-43.5392	-127.52	20.0504	-68.1325	-95.0898	27.6836	-69.477	-92.8582	34.858	-34.6547	-118.174	5.7901	-64.4401	-89.3026	16.5277	-58.9463	-92.2655	25.1824	-27.203	-113.031	-9.34257	-52.4462	-87.9471	5.1285	-46.7411	-91.5198	17.1879	-18.4485	-153.391	-4.44249	-19.1607	-160.147	-3.63908	9.82926	-164.528	30.9241	-4.41399	
97	0.808333	-144.052	54.5495	5.13461	-133.163	67.3622	-19.173	-128.79	69.0535	-45.1358	-122.151	60.7908	-72.528	-139.197	40.396	-67.4313	-105.639	46.6941	-77.0395	-96.979	53.4571	-44.1248	-126.333	18.4009	-68.4844	-94.5605	30.0467	-68.5496	-94.2892	37.965	-33.7655	-117.752	4.91374	-63.8237	-88.2071	13.3876	-58.199	-91.5503	24.8385	-26.0677	-113.101	-10.128	-51.6728	-87.6086	6.53551	-47.3569	-92.0657	19.4746	-17.4749	-154.995	-1.67733	-19.3462	-157.842	-2.84964	14.5562	-163.701	27.2298	-7.91677	
98	0.816667	-146.09	57.7413	5.72868	-133.867	71.1176	-18.6231	-130.241	70.7873	-49.2954	-123.228	59.681	-69.0949	-137.534	37.664	-66.8924	-106.363	45.427	-76.2191	-96.1093	52.0737	-46.1738	-126.053	19.8085	-68.8664	-97.283	29.8154	-71.2687	-95.8693	37.3645	-31.7113	-116.461	3.33367	-62.9577	-88.6918	12.134	-58.7061	-90.5228	26.036	-28.2838	-112.785	-10.0332	-50.3875	-88.2533	5.90225	-47.5193	-92.1609	20.032	-16.8819	-152.86	-3.38691	-19.08	-157.236	-3.76946	14.7488	-163.995	29.6512	-3.2593	
99	0.825	-145.115	53.6817	2.78786	-134.46	67.4646	-20.831	-130.307	72.5656	-46.0245	-122.717	62.8634	-68.4991	-135.383	36.9369	-68.9318	-108.07	43.188	-78.0976	-96.5874	51.4587	-45.0143	-126.6	18.9059	-68.0767	-95.2248	30.857	-68.1635	-96.8369	38.3477	-31.124	-114.319	2.74967	-63.2894	-89.1915	16.2422	-58.4657	-92.3512	28.6951	-27.6378	-115.104	-9.77297	-48.721	-87.8888	3.47201	-48.7874	-91.0272	18.6711	-21.2726	-153.487	-6.01832	-16.9824	-157.597	-2.61072	11.9699	-165.826	25.526	-3.1008	
100	0.833333	-143.949	53.7093	8.25357	-133.94	68.7033	-20.1598	-129.772	71.8938	-44.5834	-123.115	64.6525	-69.2374	-136.347	37.9599	-66.9417	-108.266	42.392	-76.8352	-96.7785	49.964	-42.4977	-123.223	19.0118	-71.0978	-95.088	29.0755	-69.2322	-97.1246	39.5876	-32.1018	-117.357	3.16654	-61.421	-89.7243	16.1598	-58.9645	-92.7337	27.7294	-24.7149	-111.022	-13.1723	-49.5323	-87.7434	4.46021	-48.8202	-90.3447	19.5041	-19.8569	-152.368	-6.05699	-17.5241	-157.818	-1.07208	15.7609	-163.723	28.1384	-4.52812	
101	0.841667	-144.96	54.7029	2.63662	-132.048	64.1892	-17.9051	-128.205	67.6085	-44.6885	-122.025	62.4922	-68.302	-135.6	38.232	-67.6457	-108.352	44.0829	-76.8791	-96.5705	49.5654	-41.0072	-125.804	19.4256	-67.6238	-93.1159	28.8708	-65.8426	-95.1226	34.8292	-31.9957	-116.07	3.91391	-62.5546	-86.1764	16.1877	-55.0952	-92.0826	27.1341	-25.1974	-110.997	-12.6565	-49.6225	-88.1918	4.25267	-49.4266	-90.5925	19.0862	-17.8782	-153.019	-5.59806	-16.9915	-155.61	-3.95216	11.3816	-165.417	27.4026	-8.3985	
102	0.85	-145.068	55.4584	2.85692	-132.791	66.3822	-21.4828	-127.156	69.0111	-45.0017	-120.221	62.2918	-69.0998	-134.362	39.7706	-70.6181	-105.979	45.826	-75.966	-95.5532	49.1918	-44.5763	-123.025	18.0908	-69.8327	-94.4433	32.5792	-68.5841	-95.0132	37.1141	-31.823	-114.274	1.54927	-61.0558	-87.3595	17.9943	-56.0144	-91.9934	26.3743	-23.9856	-112.262	-10.4972	-48.1741	-87.4554	7.06022	-47.9951	-90.2473	18.6521	-17.2742	-151.064	-6.60594	-17.8944	-156.765	-0.821634	10.6423	-164.037	24.3779	-7.90813	
103	0.858333	-142.627	52.5422	3.28927	-131.686	64.8874	-19.1314	-126.626	72.0399	-45.552	-120.249	63.7091	-70.5629	-134.075	37.1457	-69.1794	-104.236	44.5839	-75.0248	-96.9573	52.2051	-42.5045	-123.045	19.6978	-69.4066	-92.1593	30.792	-66.3082	-93.6286	38.3604	-33.9339	-114.589	5.24443	-62.2827	-87.6311	18.4795	-57.2395	-94.1749	27.8263	-23.8225	-110.577	-9.86841	-50.6392	-86.7985	8.05286	-48.2493	-90.907	21.9517	-17.9668	-149.379	-5.28338	-18.2985	-155.725	-1.39427	10.4501	-162.408	24.5498	-7.46606	
104	0.866667	-142.763	53.3631	5.53002	-131.11	63.9801	-21.0514	-125.882	71.7214	-46.868	-119.986	63.008	-73.241	-133.842	38.3472	-69.4562	-102.908	44.2289	-73.53	-97.2263	50.0744	-40.0345	-121.94	18.0706	-68.7419	-92.497	30.3573	-67.904	-96.8929	38.9042	-30.4777	-111.111	3.9452	-64.0548	-87.1713	17.4901	-58.3876	-94.1676	29.1012	-25.0646	-111.776	-10.6438	-47.6952	-86.3216	6.45917	-49.0534	-87.3279	19.7745	-18.6654	-150.361	-7.43611	-18.3976	-156.759	-5.1791	15.3166	-162.08	27.9859	-5.05866	
105	0.875	-142.929	51.8568	2.23243	-129.918	64.7862	-19.5349	-125.788	67.0871	-46.8052	-119.978	64.942	-66.8611	-134.074	40.5101	-68.9056	-105.335	42.661	-75.7684	-97.2626	52.8878	-41.0066	-124.095	22.6582	-69.4804	-93.5898	30.9657	-69.5906	-94.3353	40.0761	-32.407	-115.632	3.58812	-60.4676	-86.4901	20.3429	-56.6244	-94.5081	29.0871	-23.0218	-108.406	-12.4599	-49.3521	-84.0482	4.509	-48.7895	-88.6918	21.3711	-22.8251	-150.826	-2.95173	-17.4987	-156.82	-1.84633	14.2993	-160.018	23.8056	-8.5881	
106	0.883333	-142.845	56.8193	3.5589	-129.143	68.9411	-18.174	-124.92	69.8013	-47.2748	-118.564	62.5353	-72.3934	-132.191	40.4245	-71.3592	-103.847	46.4071	-75.8481	-97.3639	51.4912	-42.8611	-121.198	21.34	-71.9439	-93.2967	30.9814	-68.8009	-93.8951	36.3622	-30.6287	-115.127	4.54642	-61.3596	-85.9311	15.6379	-57.1545	-90.2227	25.8051	-25.4101	-107.933	-8.08473	-52.2203	-82.0845	3.557	-47.2439	-89.3398	19.612	-16.1304	-148.208	-5.6017	-18.9786	-155.216	-2.43591	15.0649	-161.6	28.3547	-5.82226	
107	0.891667	-141.011	54.4505	5.06336	-129.393	65.8982	-22.6231	-124.595	69.5826	-45.3286	-119.132	64.8569	-71.3512	-134.9	42.1697	-68.9519	-104.155	46.0253	-76.2969	-97.7042	49.2172	-42.5975	-120.773	21.5925	-71.6825	-91.8755	32.2619	-67.558	-91.7693	35.7105	-34.1158	-112.535	3.89499	-62.3723	-84.0589	13.7024	-57.4417	-90.8755	28.2866	-25.6237	-108.957	-9.46827	-51.9972	-84.8229	4.69974	-48.3203	-89.8221	19.8438	-19.7811	-148.903	-6.57939	-18.5621	-154.848	-2.08262	14.3042	-163.063	27.2361	-7.55034	
108	0.9	-141.431	55.0345	5.02023	-128.792	63.6444	-20.5675	-124.778	70.9299	-45.9655	-118.424	65.795	-67.923	-133.935	41.9504	-69.479	-103.4	46.2166	-76.1922	-98.261	53.9033	-41.5463	-121.504	23.9326	-72.4254	-90.7685	32.2423	-66.1267	-94.2942	38.6091	-31.9855	-110.144	4.36091	-64.2815	-84.1291	14.379	-57.1503	-91.5102	26.7791	-24.7814	-108.005	-9.80415	-51.3726	-82.366	5.30602	-45.4973	-87.8996	20.7832	-20.7891	-150.549	-3.4689	-18.9594	-156.589	-1.29536	11.3081	-159.95	26.9196	-8.44167	
109	0.908333	-140.929	54.1688	2.44392	-128.918	68.7417	-20.0852	-123.196	69.8802	-44.9836	-118.016	63.6193	-70.6496	-130.649	39.2604	-69.7216	-104.497	45.1657	-76.4894	-95.6718	52.2878	-44.968	-123.416	22.214	-68.0811	-90.41	31.7565	-67.3331	-91.7962	34.7153	-32.8225	-112.225	4.804	-62.9652	-84.2474	17.2186	-54.4695	-88.6009	25.0433	-25.1431	-107.148	-10.8727	-51.9725	-84.6924	7.54221	-46.8802	-87.9751	19.179	-17.1394	-149.774	-4.16537	-15.3181	-157.824	-0.609631	13.9007	-162.195	28.5053	-5.33533	
110	0.916667	-140.589	57.4345	6.795	-128.023	69.0023	-21.9019	-123.078	69.9225	-46.2561	-118.03	61.0843	-68.2029	-131.839	40.6004	-68.5511	-101.722	44.1712	-73.3541	-94.1663	51.4836	-44.3637	-121.077	23.8118	-70.0382	-89.7903	30.0573	-66.3245	-94.6866	37.8856	-28.7275	-113.484	6.40634	-62.5334	-84.9078	16.3758	-56.6667	-88.813	25.2392	-23.736	-109.178	-8.42227	-50.3698	-84.87	5.77279	-46.6819	-89.5201	18.9597	-20.1016	-149.334	-4.30221	-15.2866	-156.338	-1.51152	14.6893	-162.379	30.0938	-5.38725	
111	0.925	-140.527	56.2721	5.7795	-126.94	67.3188	-15.3914	-123.363	71.4652	-42.5585	-117.812	67.1454	-66.8537	-131.893	41.6871	-68.2581	-102.848	44.633	-75.4063	-96.5941	51.2028	-41.2814	-122.054	25.2508	-70.7983	-91.3392	29.3813	-67.7413	-93.3144	36.0614	-29.6295	-112.121	4.75161	-61.6611	-83.8843	15.1354	-56.1894	-89.0901	25.46	-24.4211	-110.179	-12.0383	-48.4872	-82.7535	3.09164	-47.2582	-88.9112	19.4321	-14.5356	-149.004	-1.49659	-20.2945	-156.228	0.948979	13.4909	-160.433	27.2001	-3.8479	
112	0.933333	-141.267	58.8805	7.16148	-127.61	68.5445	-18.5403	-123.493	71.7139	-43.2785	-117.234	68.2916	-68.6453	-132.655	43.4901	-68.0334	-101.915	50.6263	-74.2896	-98.278	53.6708	-39.2855	-122.565	21.1382	-67.9737	-92.6512	33.6046	-69.931	-91.0053	38.7199	-33.3239	-111.003	6.78965	-63.0529	-84.438	17.4056	-56.3473	-90.3675	28.0869	-25.1587	-107.164	-7.55906	-51.3517	-85.2489	5.87272	-48.0412	-90.9134	20.049	-17.2979	-148.882	-3.1834	-16.3738	-155.358	0.723207	10.8622	-161.758	28.038	-7.00839	
113	0.941667	-141.609	59.4614	3.12951	-128.834	69.2558	-16.6448	-123.597	74.4979	-44.4112	-117.725	68.9122	-69.9946	-132.119	43.6776	-67.4387	-100.592	50.0765	-72.8364	-98.5535	54.759	-39.1601	-118.374	22.4028	-71.7052	-92.0976	34.7243	-69.7293	-94.9062	38.1381	-29.0276	-110.352	8.99308	-64.2594	-85.6564	20.3735	-56.273	-92.6807	28.2959	-21.3215	-108.115	-8.26538	-49.7217	-81.4725	7.77547	-44.3068	-90.5093	20.1181	-14.1191	-149.845	0.6224	-20.5814	-155.04	-2.43491	12.0401	-161.264	29.7325	-4.97861	
114	0.95	-141.53	56.676	6.78668	-129.337	68.1916	-21.8213	-124.804	71.9988	-47.8259	-117.679	66.4361	-67.753	-132.734	43.6571	-69.3734	-101.878	50.7034	-73.611	-97.0004	51.9239	-42.0335	-122.279	26.7905	-70.0631	-89.8867	34.4172	-65.2983	-91.6357	41.6725	-33.7641	-108.727	7.19064	-64.8175	-85.4786	19.7441	-56.7878	-91.0517	29.8605	-24.4848	-110.184	-6.489	-48.7854	-84.2354	9.31143	-47.4962	-88.2894	19.945	-16.2117	-148.155	-1.64314	-16.1649	-153.02	-2.61406	9.10514	-161.662	26.6144	-5.2742	
115	0.958333	-141.175	55.9015	3.51812	-129.313	68.2257	-17.3023	-124.529	73.9605	-48.138	-118.72	66.6576	-68.9774	-133.215	43.8639	-68.8197	-101.006	50.8893	-73.9642	-96.6715	55.8983	-43.6993	-120.258	23.0342	-70.5689	-88.9777	32.073	-64.2829	-92.9434	40.5864	-33.3624	-113.55	9.11134	-61.9434	-83.7844	22.81	-53.1457	-93.7287	30.1362	-24.305	-106.986	-6.60967	-52.001	-82.0565	6.61483	-44.9161	-90.7891	22.7738	-16.8265	-148.021	-2.00736	-19.0652	-155.097	0.490044	10.01	-161.142	32.0018	-7.45359	
